# xmcd CD database file
# Copyright (C) 1996 Ti Kan
#
# Track frame offsets:
#	150
#	16055
#	33575
#	54002
#	72462
#	97437
#	114740
#	134940
#	147650
#	166480
#	187250
#	201782
#	215032
#	229780
#	262567
#	284185
#	301102
#	321247
#
# Disc length: 4547 seconds
#
# Revision: 1
# Processed by: cddbd v1.4b41PL1 Copyright (c) Steve Scherf et al.
# Submitted via: EasyCD 2.21 - (C) 1996 Greg Leichner
#
DISCID=2311c112
DTITLE=Elvin Bishop - The Best of Elvin Bishop
DYEAR=1900
DGENRE=
TTITLE0=Ground Hog
TTITLE1=Let it Flow
TTITLE2=Fishin'
TTITLE3=Stealin' Watermelons
TTITLE4=Juke Joint Jump
TTITLE5=Crawling Kingsnake
TTITLE6=Calling all Cows
TTITLE7=Sure Feels Good
TTITLE8=Struttin' my Stuff
TTITLE9=Fooled Around and Fell in Love
TTITLE10=Holler and Shout
TTITLE11=Sugar Dumplin'
TTITLE12=Gravey and Blues
TTITLE13=Travelin'  Shoes (Live Version)
TTITLE14=Rock my Soul (Live Version)
TTITLE15=Oh Babe
TTITLE16=Southern Dreams
TTITLE17=It's a  Feelin'
EXTD=
EXTT0=
EXTT1=
EXTT2=
EXTT3=
EXTT4=
EXTT5=
EXTT6=
EXTT7=
EXTT8=
EXTT9=
EXTT10=
EXTT11=
EXTT12=
EXTT13=
EXTT14=
EXTT15=
EXTT16=
EXTT17=
PLAYORDER=
